{
    "asset" : {
        "generator" : "Khronos glTF Blender I/O v1.3.48",
        "version" : "2.0"
    },
    "scene" : 0,
    "scenes" : [
        {
            "name" : "Scene",
            "nodes" : [
                0
            ]
        }
    ],
    "nodes" : [
        {
            "mesh" : 0,
            "name" : "10128_Video_camera_v1_L3",
            "rotation" : [
                -0.19823119044303894,
                -0.8838889002799988,
                -0.03400826081633568,
                -0.4222419857978821
            ]
        }
    ],
    "materials" : [
        {
            "doubleSided" : true,
            "emissiveFactor" : [
                0,
                0,
                0
            ],
            "name" : "01___Ski_poles",
            "pbrMetallicRoughness" : {
                "baseColorTexture" : {
                    "index" : 0,
                    "texCoord" : 0
                },
                "metallicFactor" : 0,
                "roughnessFactor" : 0.8945907354354858
            }
        }
    ],
    "meshes" : [
        {
            "name" : "10128_Video_camera_v1_L3",
            "primitives" : [
                {
                    "attributes" : {
                        "POSITION" : 0,
                        "NORMAL" : 1,
                        "TEXCOORD_0" : 2
                    },
                    "indices" : 3,
                    "material" : 0
                }
            ]
        }
    ],
    "textures" : [
        {
            "source" : 0
        }
    ],
    "images" : [
        {
            "bufferView" : 4,
            "mimeType" : "image/jpeg",
            "name" : "10128_video_camera_v1_Diffuse"
        }
    ],
    "accessors" : [
        {
            "bufferView" : 0,
            "componentType" : 5126,
            "count" : 19766,
            "max" : [
                9.247099876403809,
                7.108399868011475,
                6.11870002746582
            ],
            "min" : [
                -4.203499794006348,
                0.010599999688565731,
                -6.111000061035156
            ],
            "type" : "VEC3"
        },
        {
            "bufferView" : 1,
            "componentType" : 5126,
            "count" : 19766,
            "type" : "VEC3"
        },
        {
            "bufferView" : 2,
            "componentType" : 5126,
            "count" : 19766,
            "type" : "VEC2"
        },
        {
            "bufferView" : 3,
            "componentType" : 5123,
            "count" : 102336,
            "type" : "SCALAR"
        }
    ],
    "bufferViews" : [
        {
            "buffer" : 0,
            "byteLength" : 237192,
            "byteOffset" : 0
        },
        {
            "buffer" : 0,
            "byteLength" : 237192,
            "byteOffset" : 237192
        },
        {
            "buffer" : 0,
            "byteLength" : 158128,
            "byteOffset" : 474384
        },
        {
            "buffer" : 0,
            "byteLength" : 204672,
            "byteOffset" : 632512
        },
        {
            "buffer" : 0,
            "byteLength" : 241797,
            "byteOffset" : 837184
        }
    ],
    "buffers" : [
        {
            "byteLength" : 1078984,
            "uri" : "data:application/octet-stream;base64,"
        }
    ]
}
