{
    "asset" : {
        "generator" : "Khronos glTF Blender I/O v1.3.48",
        "version" : "2.0"
    },
    "scene" : 0,
    "scenes" : [
        {
            "name" : "Scene",
            "nodes" : [
                0
            ]
        }
    ],
    "nodes" : [
        {
            "mesh" : 0,
            "name" : "Colgante Corazon",
            "rotation" : [
                -0.24199141561985016,
                0.13169413805007935,
                -0.9119882583618164,
                0.3039312958717346
            ],
            "scale" : [
                5.231180667877197,
                5.492203235626221,
                10.58979320526123
            ],
            "translation" : [
                -182.0192108154297,
                68.53141784667969,
                48.589778900146484
            ]
        }
    ],
    "materials" : [
        {
            "doubleSided" : true,
            "name" : "Material.002",
            "pbrMetallicRoughness" : {}
        }
    ],
    "meshes" : [
        {
            "name" : "Colgante Corazon",
            "primitives" : [
                {
                    "attributes" : {
                        "POSITION" : 0,
                        "NORMAL" : 1
                    },
                    "indices" : 2,
                    "material" : 0
                }
            ]
        }
    ],
    "accessors" : [
        {
            "bufferView" : 0,
            "componentType" : 5126,
            "count" : 1469,
            "max" : [
                25.59148597717285,
                25.260000228881836,
                0
            ],
            "min" : [
                0.008513219654560089,
                0.00990554690361023,
                -5.799999713897705
            ],
            "type" : "VEC3"
        },
        {
            "bufferView" : 1,
            "componentType" : 5126,
            "count" : 1469,
            "type" : "VEC3"
        },
        {
            "bufferView" : 2,
            "componentType" : 5123,
            "count" : 1776,
            "type" : "SCALAR"
        }
    ],
    "bufferViews" : [
        {
            "buffer" : 0,
            "byteLength" : 17628,
            "byteOffset" : 0
        },
        {
            "buffer" : 0,
            "byteLength" : 17628,
            "byteOffset" : 17628
        },
        {
            "buffer" : 0,
            "byteLength" : 3552,
            "byteOffset" : 35256
        }
    ],
    "buffers" : [
        {
            "byteLength" : 38808,
            "uri" : "data:application/octet-stream;base64,"
        }
    ]
}
