{
    "asset" : {
        "generator" : "Khronos glTF Blender I/O v1.3.48",
        "version" : "2.0"
    },
    "scene" : 0,
    "scenes" : [
        {
            "name" : "Scene",
            "nodes" : [
                0
            ]
        }
    ],
    "nodes" : [
        {
            "mesh" : 0,
            "name" : "Ie",
            "rotation" : [
                -0.1383410394191742,
                0.6298121809959412,
                -0.7575520873069763,
                0.10155405849218369
            ],
            "scale" : [
                2.061048984527588,
                2.061048984527588,
                2.061048984527588
            ],
            "translation" : [
                -149.18408203125,
                -16.816818237304688,
                156.22042846679688
            ]
        }
    ],
    "materials" : [
        {
            "doubleSided" : true,
            "name" : "Material.001",
            "pbrMetallicRoughness" : {}
        }
    ],
    "meshes" : [
        {
            "name" : "Ie",
            "primitives" : [
                {
                    "attributes" : {
                        "POSITION" : 0,
                        "NORMAL" : 1
                    },
                    "indices" : 2,
                    "material" : 0
                }
            ]
        }
    ],
    "accessors" : [
        {
            "bufferView" : 0,
            "componentType" : 5126,
            "count" : 21155,
            "max" : [
                20.28604507446289,
                3.2200000286102295,
                21.43110466003418
            ],
            "min" : [
                -20.28604507446289,
                0,
                -21.43110466003418
            ],
            "type" : "VEC3"
        },
        {
            "bufferView" : 1,
            "componentType" : 5126,
            "count" : 21155,
            "type" : "VEC3"
        },
        {
            "bufferView" : 2,
            "componentType" : 5123,
            "count" : 23820,
            "type" : "SCALAR"
        }
    ],
    "bufferViews" : [
        {
            "buffer" : 0,
            "byteLength" : 253860,
            "byteOffset" : 0
        },
        {
            "buffer" : 0,
            "byteLength" : 253860,
            "byteOffset" : 253860
        },
        {
            "buffer" : 0,
            "byteLength" : 47640,
            "byteOffset" : 507720
        }
    ],
    "buffers" : [
        {
            "byteLength" : 555360,
            "uri" : "data:application/octet-stream;base64,"
        }
    ]
}
